<?xml version="1.0" encoding="iso-8859-1"?>
<!-- Generator: Adobe Illustrator 19.0.0, SVG Export Plug-In . SVG Version: 6.00 Build 0)  -->
<svg version="1.1" id="Capa_1" xmlns="http://www.w3.org/2000/svg" xmlns:xlink="http://www.w3.org/1999/xlink" x="0px" y="0px"
	 viewBox="0 0 512 512" style="enable-background:new 0 0 512 512;" xml:space="preserve">
<path style="fill:#6D6382;" d="M230.636,0H111.499C95.832,0,83.135,12.7,83.135,28.366v108.053h175.866V28.366
	C259.001,12.7,246.303,0,230.636,0z M221.604,80.842c0,2.845-2.307,5.151-5.151,5.151h-90.771c-2.845,0-5.151-2.307-5.151-5.151
	V42.548c0-2.845,2.307-5.151,5.151-5.151h90.771c2.845,0,5.151,2.306,5.151,5.151V80.842z"/>
<g style="opacity:0.1;">
	<path d="M134.014,0h-22.515C95.832,0,83.135,12.7,83.135,28.366v108.053h22.514V28.366C105.648,12.7,118.347,0,134.014,0z"/>
</g>
<polygon style="fill:#B2B4CE;" points="68.882,136.419 28.12,485.053 314.015,485.053 273.254,136.419 "/>
<polygon style="opacity:0.1;enable-background:new    ;" points="68.882,136.419 28.12,485.053 50.755,485.053 91.517,136.419 "/>
<path style="fill:#96D69D;" d="M288.785,145.188c0,2.833-2.317,5.151-5.15,5.151H58.501c-2.833,0-5.151-2.318-5.151-5.151v-29.412
	c0-2.833,2.318-5.151,5.151-5.151h225.134c2.833,0,5.15,2.318,5.15,5.151V145.188z"/>
<path style="opacity:0.1;enable-background:new    ;" d="M87.287,145.188v-29.412c0-2.833,2.318-5.151,5.151-5.151H58.501
	c-2.833,0-5.151,2.318-5.151,5.151v29.412c0,2.833,2.318,5.151,5.151,5.151h33.937C89.605,150.339,87.287,148.021,87.287,145.188z"
	/>
<path style="fill:#6D6382;" d="M330.624,506.849c0,2.833-2.317,5.151-5.15,5.151H16.661c-2.833,0-5.15-2.318-5.15-5.151v-26.575
	c0-2.833,2.317-5.151,5.15-5.151h308.813c2.833,0,5.15,2.318,5.15,5.151V506.849z"/>
<path style="opacity:0.1;enable-background:new    ;" d="M50.755,506.849v-26.575c0-2.833,2.318-5.151,5.151-5.151H16.661
	c-2.833,0-5.15,2.318-5.15,5.151v26.575c0,2.833,2.317,5.151,5.15,5.151h39.245C53.073,512,50.755,509.682,50.755,506.849z"/>
<g>
	<path style="fill:#9798BC;" d="M100.153,179.713c-4.143,0-7.5,3.358-7.5,7.5v16.461c0,4.142,3.357,7.5,7.5,7.5
		c4.142,0,7.5-3.358,7.5-7.5v-16.461C107.653,183.071,104.295,179.713,100.153,179.713z"/>
	<path style="fill:#9798BC;" d="M135.61,179.713c-4.142,0-7.5,3.358-7.5,7.5v16.461c0,4.142,3.358,7.5,7.5,7.5
		c4.143,0,7.5-3.358,7.5-7.5v-16.461C143.11,183.071,139.753,179.713,135.61,179.713z"/>
	<path style="fill:#9798BC;" d="M171.067,179.713c-4.143,0-7.5,3.358-7.5,7.5v16.461c0,4.142,3.357,7.5,7.5,7.5
		c4.142,0,7.5-3.358,7.5-7.5v-16.461C178.567,183.071,175.209,179.713,171.067,179.713z"/>
	<path style="fill:#9798BC;" d="M206.524,179.713c-4.142,0-7.5,3.358-7.5,7.5v16.461c0,4.142,3.358,7.5,7.5,7.5
		c4.143,0,7.5-3.358,7.5-7.5v-16.461C214.024,183.071,210.667,179.713,206.524,179.713z"/>
	<path style="fill:#9798BC;" d="M241.982,179.713c-4.143,0-7.5,3.358-7.5,7.5v16.461c0,4.142,3.357,7.5,7.5,7.5
		c4.142,0,7.5-3.358,7.5-7.5v-16.461C249.482,183.071,246.124,179.713,241.982,179.713z"/>
	<path style="fill:#9798BC;" d="M117.883,227.726c-4.143,0-7.5,3.358-7.5,7.5v16.461c0,4.142,3.357,7.5,7.5,7.5
		c4.142,0,7.5-3.358,7.5-7.5v-16.461C125.383,231.083,122.024,227.726,117.883,227.726z"/>
	<path style="fill:#9798BC;" d="M153.338,227.726c-4.142,0-7.5,3.358-7.5,7.5v16.461c0,4.142,3.358,7.5,7.5,7.5
		c4.143,0,7.5-3.358,7.5-7.5v-16.461C160.838,231.083,157.48,227.726,153.338,227.726z"/>
	<path style="fill:#9798BC;" d="M188.796,227.726c-4.142,0-7.5,3.358-7.5,7.5v16.461c0,4.142,3.358,7.5,7.5,7.5
		c4.143,0,7.5-3.358,7.5-7.5v-16.461C196.296,231.083,192.938,227.726,188.796,227.726z"/>
	<path style="fill:#9798BC;" d="M224.253,227.726c-4.142,0-7.5,3.358-7.5,7.5v16.461c0,4.142,3.358,7.5,7.5,7.5
		c4.143,0,7.5-3.358,7.5-7.5v-16.461C231.753,231.083,228.395,227.726,224.253,227.726z"/>
	<path style="fill:#9798BC;" d="M100.153,272.995c-4.143,0-7.5,3.358-7.5,7.5v16.461c0,4.142,3.357,7.5,7.5,7.5
		c4.142,0,7.5-3.358,7.5-7.5v-16.461C107.653,276.353,104.295,272.995,100.153,272.995z"/>
	<path style="fill:#9798BC;" d="M135.61,272.995c-4.142,0-7.5,3.358-7.5,7.5v16.461c0,4.142,3.358,7.5,7.5,7.5
		c4.143,0,7.5-3.358,7.5-7.5v-16.461C143.11,276.353,139.753,272.995,135.61,272.995z"/>
	<path style="fill:#9798BC;" d="M171.067,272.995c-4.143,0-7.5,3.358-7.5,7.5v16.461c0,4.142,3.357,7.5,7.5,7.5
		c4.142,0,7.5-3.358,7.5-7.5v-16.461C178.567,276.353,175.209,272.995,171.067,272.995z"/>
	<path style="fill:#9798BC;" d="M206.524,272.995c-4.142,0-7.5,3.358-7.5,7.5v16.461c0,4.142,3.358,7.5,7.5,7.5
		c4.143,0,7.5-3.358,7.5-7.5v-16.461C214.024,276.353,210.667,272.995,206.524,272.995z"/>
	<path style="fill:#9798BC;" d="M241.982,272.995c-4.143,0-7.5,3.358-7.5,7.5v16.461c0,4.142,3.357,7.5,7.5,7.5
		c4.142,0,7.5-3.358,7.5-7.5v-16.461C249.482,276.353,246.124,272.995,241.982,272.995z"/>
	<path style="fill:#9798BC;" d="M117.883,321.007c-4.143,0-7.5,3.358-7.5,7.5v16.46c0,4.142,3.357,7.5,7.5,7.5
		c4.142,0,7.5-3.358,7.5-7.5v-16.46C125.383,324.365,122.024,321.007,117.883,321.007z"/>
	<path style="fill:#9798BC;" d="M153.338,321.007c-4.142,0-7.5,3.358-7.5,7.5v16.46c0,4.142,3.358,7.5,7.5,7.5
		c4.143,0,7.5-3.358,7.5-7.5v-16.46C160.838,324.365,157.48,321.007,153.338,321.007z"/>
	<path style="fill:#9798BC;" d="M188.796,321.007c-4.142,0-7.5,3.358-7.5,7.5v16.46c0,4.142,3.358,7.5,7.5,7.5
		c4.143,0,7.5-3.358,7.5-7.5v-16.46C196.296,324.365,192.938,321.007,188.796,321.007z"/>
	<path style="fill:#9798BC;" d="M224.253,321.007c-4.142,0-7.5,3.358-7.5,7.5v16.46c0,4.142,3.358,7.5,7.5,7.5
		c4.143,0,7.5-3.358,7.5-7.5v-16.46C231.753,324.365,228.395,321.007,224.253,321.007z"/>
	<path style="fill:#9798BC;" d="M100.153,366.276c-4.143,0-7.5,3.358-7.5,7.5v16.461c0,4.142,3.357,7.5,7.5,7.5
		c4.142,0,7.5-3.358,7.5-7.5v-16.461C107.653,369.634,104.295,366.276,100.153,366.276z"/>
	<path style="fill:#9798BC;" d="M135.61,366.276c-4.142,0-7.5,3.358-7.5,7.5v16.461c0,4.142,3.358,7.5,7.5,7.5
		c4.143,0,7.5-3.358,7.5-7.5v-16.461C143.11,369.634,139.753,366.276,135.61,366.276z"/>
	<path style="fill:#9798BC;" d="M171.067,366.276c-4.143,0-7.5,3.358-7.5,7.5v16.461c0,4.142,3.357,7.5,7.5,7.5
		c4.142,0,7.5-3.358,7.5-7.5v-16.461C178.567,369.634,175.209,366.276,171.067,366.276z"/>
	<path style="fill:#9798BC;" d="M206.524,366.276c-4.142,0-7.5,3.358-7.5,7.5v16.461c0,4.142,3.358,7.5,7.5,7.5
		c4.143,0,7.5-3.358,7.5-7.5v-16.461C214.024,369.634,210.667,366.276,206.524,366.276z"/>
	<path style="fill:#9798BC;" d="M241.982,366.276c-4.143,0-7.5,3.358-7.5,7.5v16.461c0,4.142,3.357,7.5,7.5,7.5
		c4.142,0,7.5-3.358,7.5-7.5v-16.461C249.482,369.634,246.124,366.276,241.982,366.276z"/>
	<path style="fill:#9798BC;" d="M117.883,414.289c-4.143,0-7.5,3.358-7.5,7.5v16.461c0,4.142,3.357,7.5,7.5,7.5
		c4.142,0,7.5-3.358,7.5-7.5v-16.461C125.383,417.647,122.024,414.289,117.883,414.289z"/>
	<path style="fill:#9798BC;" d="M153.338,414.289c-4.142,0-7.5,3.358-7.5,7.5v16.461c0,4.142,3.358,7.5,7.5,7.5
		c4.143,0,7.5-3.358,7.5-7.5v-16.461C160.838,417.647,157.48,414.289,153.338,414.289z"/>
	<path style="fill:#9798BC;" d="M188.796,414.289c-4.142,0-7.5,3.358-7.5,7.5v16.461c0,4.142,3.358,7.5,7.5,7.5
		c4.143,0,7.5-3.358,7.5-7.5v-16.461C196.296,417.647,192.938,414.289,188.796,414.289z"/>
	<path style="fill:#9798BC;" d="M224.253,414.289c-4.142,0-7.5,3.358-7.5,7.5v16.461c0,4.142,3.358,7.5,7.5,7.5
		c4.143,0,7.5-3.358,7.5-7.5v-16.461C231.753,417.647,228.395,414.289,224.253,414.289z"/>
</g>
<path style="fill:#F8C36E;" d="M347.793,496.591c2.003,2.004,5.281,2.004,7.284,0l101.146-101.146c2.003-2.004,2.003-5.281,0-7.285
	l-12.346-12.345c-2.003-2.004-5.281-2.004-7.284,0L335.447,476.961c-2.003,2.003-2.003,5.281,0,7.285L347.793,496.591z"/>
<g>
	<path style="fill:#F6B142;" d="M337,375.666c-2.003,2.003-2.003,5.281,0,7.285l87.165,87.163c2.003,2.003,5.28,2.003,7.283,0
		l12.347-12.345c2.003-2.004,2.003-5.281,0-7.285l-87.167-87.163c-2.004-2.004-5.281-2.003-7.284,0L337,375.666z"/>
	<path style="fill:#F6B142;" d="M384.425,409.808c-2.003,2.003-2.003,5.281,0,7.284l87.165,87.163c2.003,2.003,5.281,2.003,7.285,0
		l12.346-12.346c2.004-2.003,2.004-5.281,0.001-7.284l-87.165-87.164c-2.003-2.003-5.28-2.003-7.283,0L384.425,409.808z"/>
</g>
<path style="fill:#F8C36E;" d="M272.73,505.728c2.003,2.004,5.28,2.004,7.283,0l79.262-79.261c2.003-2.003,2.003-5.281,0-7.285
	l-12.348-12.346c-2.003-2.003-5.281-2.003-7.284,0l-79.259,79.262c-2.004,2.003-2.004,5.281,0,7.285L272.73,505.728z"/>
<path style="fill:#FFCB00;" d="M310.503,495.375c2.004,2.003,5.281,2.003,7.284-0.001l101.147-101.146
	c2.003-2.004,2.003-5.281-0.001-7.284l-12.346-12.346c-2.005-2.003-5.282-2.003-7.285,0L298.155,475.745
	c-2.003,2.003-2.003,5.281,0.001,7.284L310.503,495.375z"/>
<path style="fill:#F6B142;" d="M289.638,479.849c0,2.833,2.318,5.151,5.151,5.151H414.73c2.833,0,5.151-2.318,5.151-5.151v-17.46
	c0-2.833-2.318-5.151-5.151-5.151l-119.941,0.001c-2.833,0-5.151,2.318-5.151,5.151V479.849z"/>
<path style="fill:#FFCB00;" d="M301.775,452.622c0,2.833,2.317,5.151,5.15,5.151h124.806c2.832,0,5.15-2.318,5.15-5.151v-17.46
	c0-2.833-2.318-5.151-5.15-5.151l-124.806,0.001c-2.833,0-5.15,2.318-5.15,5.151V452.622z"/>
<path style="fill:#FBE24F;" d="M347.245,408.713c-2.003,2.003-2.003,5.281,0,7.285l87.167,87.163c2.004,2.004,5.281,2.004,7.284,0
	l12.346-12.345c2.003-2.003,2.003-5.281,0-7.285l-87.167-87.164c-2.003-2.003-5.28-2.003-7.283,0L347.245,408.713z"/>
<g>
	<path style="fill:#FFCB00;" d="M320.892,272.866c-2.003,2.003-2.003,5.281,0,7.285l55.552,55.55c2.003,2.003,5.28,2.003,7.283,0
		l12.347-12.346c2.003-2.003,2.003-5.281,0-7.285l-55.554-55.55c-2.003-2.003-5.28-2.003-7.284,0L320.892,272.866z"/>
	<path style="fill:#FFCB00;" d="M397.315,181.487c-2.003-2.003-5.28-2.003-7.284,0l-33.666,33.665c-2.002,2.004-2.002,5.281,0,7.285
		l12.347,12.346c2.003,2.003,5.28,2.003,7.283,0l33.666-33.665c2.003-2.003,2.003-5.281,0-7.285L397.315,181.487z"/>
	<path style="fill:#FFCB00;" d="M461.73,301.361c2.002-2.003,2.002-5.281,0-7.285l-33.664-33.664c-2.004-2.003-5.281-2.003-7.284,0
		l-12.347,12.345c-2.002,2.004-2.002,5.281,0,7.285l33.666,33.664c2.004,2.004,5.281,2.003,7.284,0L461.73,301.361z"/>
</g>
<path style="fill:#F8C36E;" d="M236.354,506.849c0,2.833,2.317,5.151,5.15,5.151H384.55c2.833,0,5.151-2.318,5.151-5.151v-17.46
	c0-2.833-2.318-5.151-5.151-5.151l-143.045,0.001c-2.833,0-5.15,2.318-5.15,5.151L236.354,506.849L236.354,506.849z"/>
<path style="fill:#FFCB00;" d="M347.144,506.849c0,2.833,2.317,5.151,5.15,5.151h143.044c2.834,0,5.151-2.318,5.151-5.151v-17.46
	c0-2.833-2.317-5.151-5.151-5.151l-143.044,0.001c-2.833,0-5.15,2.318-5.15,5.151V506.849z"/>
<g>
</g>
<g>
</g>
<g>
</g>
<g>
</g>
<g>
</g>
<g>
</g>
<g>
</g>
<g>
</g>
<g>
</g>
<g>
</g>
<g>
</g>
<g>
</g>
<g>
</g>
<g>
</g>
<g>
</g>
</svg>
