<?xml version="1.0" encoding="iso-8859-1"?>
<!-- Generator: Adobe Illustrator 19.0.0, SVG Export Plug-In . SVG Version: 6.00 Build 0)  -->
<svg version="1.1" id="Capa_1" xmlns="http://www.w3.org/2000/svg" xmlns:xlink="http://www.w3.org/1999/xlink" x="0px" y="0px"
	 viewBox="0 0 512.002 512.002" style="enable-background:new 0 0 512.002 512.002;" xml:space="preserve">
<path style="fill:#F5BBD4;" d="M377.895,137.689l-21.632-23.709c-1.105-1.212-1.658-2.825-1.526-4.458l7.685-94.815
	c0.202-2.494,1.956-4.591,4.383-5.244l34.507-9.258c2.055-0.551,4.252,0.032,5.757,1.531c7.384,7.349,7.526,14.832,7.64,20.846
	c0.1,5.252,0.164,8.722,4.155,12.694c3.99,3.971,7.478,4.037,12.754,4.135c6.041,0.112,13.562,0.254,20.947,7.604
	c7.384,7.349,7.526,14.834,7.641,20.848c0.1,5.254,0.166,8.724,4.157,12.695c3.992,3.972,7.479,4.038,12.756,4.139
	c6.042,0.113,13.563,0.255,20.949,7.604c1.642,1.636,2.179,4.073,1.373,6.244l-11.827,31.828c-0.823,2.216-2.89,3.733-5.26,3.862
	l-99.731,5.388c-1.694,0.091-3.339-0.541-4.532-1.727C378.025,137.829,377.959,137.759,377.895,137.689z"/>
<path style="fill:#FF96B1;" d="M440.381,111.35c-1.067-4.002-5.176-6.382-9.179-5.314l-40.242,10.731
	c-0.179,0.048-0.352,0.109-0.524,0.169l25.134-25.014c2.936-2.922,2.947-7.67,0.025-10.607c-2.922-2.937-7.671-2.948-10.606-0.025
	l-25.264,25.143c0.069-0.192,0.154-0.375,0.208-0.576l10.783-40.05c1.077-3.999-1.292-8.114-5.292-9.192
	c-4-1.077-8.115,1.293-9.192,5.292l-9.244,34.333l33.634,33.474l34.445-9.185C439.069,119.462,441.449,115.352,440.381,111.35z"/>
<g style="opacity:0.1;">
	<path d="M378.39,125.27c-1.105-1.211-1.659-2.825-1.526-4.457l7.685-94.815c0.202-2.494,1.956-4.592,4.384-5.245l25.02-6.712
		c-0.849-3.952-2.707-8.149-6.882-12.306c-1.505-1.499-3.702-2.083-5.757-1.531l-34.507,9.258c-2.427,0.653-4.182,2.75-4.383,5.244
		l-7.685,94.815c-0.132,1.633,0.421,3.246,1.526,4.458l21.632,23.709c0.065,0.07,0.13,0.14,0.197,0.206
		c1.193,1.186,2.838,1.818,4.532,1.727l8.443-0.456L378.39,125.27z"/>
</g>
<path style="fill:#F5BBD4;" d="M316.371,300.887c-34.152,24.596-69.724,39.133-98.627,46.297c-29.089,6.88-51.515,6.388-63.624-5.65
	c-12.097-12.053-12.592-34.369-5.679-63.32c7.199-28.768,21.806-64.169,46.519-98.157c24.6-33.849,56.185-59.429,88.862-69.9
	c32.38-10.668,65.853-6.225,87.341,15.365c21.694,21.386,26.16,54.699,15.44,86.925C376.084,244.97,350.38,276.402,316.371,300.887z
	"/>
<path style="opacity:0.1;enable-background:new    ;" d="M182.865,346.849c-12.097-12.053-12.592-34.369-5.679-63.32
	c7.199-28.768,21.805-64.169,46.519-98.158c24.6-33.849,56.185-59.429,88.862-69.899c11.561-3.809,23.261-5.68,34.506-5.543
	c-18.875-7.28-41.312-7-63.251,0.229c-32.678,10.471-64.262,36.051-88.862,69.9c-24.713,33.988-39.32,69.389-46.519,98.157
	c-6.913,28.952-6.418,51.267,5.679,63.32c7.749,7.704,19.728,10.672,34.969,10.013C186.786,350.237,184.704,348.678,182.865,346.849
	z"/>
<g>
	<path style="fill:#FF96B1;" d="M217.825,297.678c-2.923-2.936-7.671-2.946-10.607-0.025l-35.742,35.575l10.632,10.582
		l35.692-35.524C220.735,305.362,220.747,300.614,217.825,297.678z"/>
	<path style="fill:#FF96B1;" d="M162.465,324.26l20.87-20.769c2.936-2.921,2.947-7.67,0.025-10.606
		c-2.921-2.936-7.67-2.948-10.607-0.025l-20.921,20.82L162.465,324.26z"/>
</g>
<path style="fill:#B2B4CE;" d="M145.545,301.625c-1.205-1.199-2.866-0.964-3.691,0.522l-39.603,71.323
	c-0.825,1.486-0.515,3.683,0.69,4.882l14.172,14.103c1.205,1.199,3.41,1.51,4.898,0.69l71.678-39.421
	c1.489-0.819,1.722-2.47,0.518-3.669L145.545,301.625z"/>
<path style="fill:#658CC7;" d="M402.212,161.638c-4.016,3.998-10.587,3.998-14.603,0.001l-52.735-52.484
	c-4.016-3.996-4.016-10.537,0-14.534l8.965-8.921c4.016-3.997,10.587-3.997,14.604,0l52.733,52.483
	c4.016,3.997,4.016,10.537,0,14.535L402.212,161.638z"/>
<path style="opacity:0.1;enable-background:new    ;" d="M352.958,113.159l9.414-9.369c3.227-3.211,8.021-3.956,11.986-2.253
	l-15.914-15.838c-4.016-3.997-10.587-3.997-14.604,0l-8.965,8.921c-4.016,3.997-4.016,10.538,0,14.534l15.677,15.603
	C349.022,120.878,349.822,116.281,352.958,113.159z"/>
<path style="fill:#9798BC;" d="M133.352,351.61l-28.617,28.526l10.632,10.581l28.575-28.483c2.934-2.924,2.941-7.673,0.017-10.607
	C141.034,348.694,136.285,348.687,133.352,351.61z"/>
<path style="fill:#F5BBD4;" d="M24.29,504.5c-2.54,0-4.599-2.06-4.599-4.599v-11.782c0-17.38,9.477-33.325,24.742-41.652
	c1.729-1.104,19.041-12.452,25.641-28.356c1.177-2.84,3.926-4.676,7.002-4.676s5.825,1.836,7.003,4.677
	c6.621,15.954,23.922,27.263,25.637,28.354c15.267,8.326,24.745,24.271,24.745,41.654v11.782c0,2.539-2.06,4.599-4.599,4.599H24.29
	V504.5z"/>
<path style="fill:#FF96B1;" d="M113.556,440.018c-1.947-1.269-16.995-11.396-22.549-24.779c-2.344-5.652-7.813-9.304-13.931-9.304
	c-6.12,0-11.588,3.652-13.93,9.302c-5.529,13.326-20.591,23.499-22.559,24.787c-17.522,9.678-28.396,28.08-28.396,48.096v11.782
	c0,6.671,5.428,12.099,12.099,12.099h26.23h53.11h26.231c6.671,0,12.099-5.428,12.099-12.099V488.12
	C141.96,468.098,131.084,449.694,113.556,440.018z M27.191,488.119c0-14.4,7.755-27.64,20.267-34.733
	c-4.32,9.546-6.751,21.687-6.751,34.733V497H27.191V488.119z M55.707,488.119c0-15.324,4.106-29.677,10.46-36.567
	c0.131-0.142,0.257-0.29,0.378-0.442c0.335-0.425,1.493-1.935,3.032-4.319V497h-13.87V488.119z M84.576,497v-50.202
	c1.541,2.384,2.7,3.892,3.035,4.316c0.118,0.15,0.243,0.296,0.372,0.436c6.355,6.889,10.462,21.243,10.462,36.568V497H84.576z
	 M126.96,497h-13.516v-8.881c0-13.047-2.431-25.188-6.751-34.733c12.512,7.093,20.267,20.332,20.267,34.733V497z"/>
<path style="fill:#F5BBD4;" d="M165.043,504.5c-2.54,0-4.599-2.06-4.599-4.599v-11.782c0-17.38,9.477-33.325,24.742-41.652
	c1.729-1.104,19.041-12.452,25.641-28.356c1.177-2.84,3.926-4.676,7.002-4.676s5.825,1.836,7.003,4.677
	c6.621,15.954,23.922,27.263,25.637,28.354c15.267,8.326,24.745,24.271,24.745,41.654v11.782c0,2.539-2.06,4.599-4.599,4.599
	H165.043V504.5z"/>
<path style="fill:#FF96B1;" d="M254.309,440.018c-1.947-1.269-16.995-11.396-22.549-24.779c-2.344-5.652-7.813-9.304-13.931-9.304
	c-6.12,0-11.588,3.652-13.93,9.302c-5.529,13.326-20.591,23.499-22.559,24.787c-17.522,9.678-28.396,28.08-28.396,48.096v11.782
	c0,6.671,5.428,12.099,12.099,12.099h26.23h53.11h26.231c6.671,0,12.099-5.428,12.099-12.099V488.12
	C282.713,468.098,271.837,449.694,254.309,440.018z M167.944,488.119c0-14.4,7.755-27.64,20.267-34.733
	c-4.32,9.546-6.752,21.687-6.752,34.733V497h-13.516v-8.881H167.944z M196.459,488.119c0-15.324,4.106-29.677,10.46-36.567
	c0.131-0.142,0.257-0.29,0.377-0.442c0.335-0.425,1.493-1.935,3.032-4.319V497h-13.869V488.119z M225.329,497v-50.202
	c1.541,2.384,2.7,3.892,3.035,4.316c0.118,0.15,0.243,0.296,0.372,0.436c6.355,6.889,10.461,21.243,10.461,36.568V497H225.329z
	 M267.713,497h-13.516v-8.881c0-13.047-2.431-25.188-6.751-34.733c12.512,7.093,20.267,20.332,20.267,34.733V497z"/>
<path style="fill:#F5BBD4;" d="M305.796,504.5c-2.54,0-4.599-2.06-4.599-4.599v-11.782c0-17.38,9.477-33.325,24.742-41.652
	c1.729-1.104,19.041-12.452,25.641-28.356c1.177-2.84,3.926-4.676,7.003-4.676c3.076,0,5.825,1.836,7.003,4.677
	c6.621,15.954,23.922,27.263,25.637,28.354c15.267,8.326,24.745,24.271,24.745,41.654v11.782c0,2.539-2.06,4.599-4.599,4.599
	H305.796V504.5z"/>
<path style="fill:#FF96B1;" d="M395.061,440.018c-1.947-1.269-16.995-11.396-22.549-24.779c-2.344-5.652-7.813-9.304-13.931-9.304
	c-6.12,0-11.588,3.652-13.93,9.302c-5.529,13.326-20.591,23.499-22.559,24.787c-17.523,9.678-28.396,28.08-28.396,48.096v11.782
	c0,6.671,5.428,12.099,12.099,12.099h26.23h53.11h26.23c6.671,0,12.099-5.428,12.099-12.099V488.12
	C423.466,468.098,412.59,449.694,395.061,440.018z M308.697,488.119c0-14.4,7.755-27.64,20.267-34.733
	c-4.32,9.546-6.751,21.687-6.751,34.733V497h-13.516V488.119z M337.212,488.119c0-15.324,4.106-29.677,10.46-36.567
	c0.131-0.142,0.257-0.29,0.377-0.442c0.336-0.425,1.493-1.935,3.032-4.319V497h-13.869L337.212,488.119L337.212,488.119z
	 M366.082,497v-50.202c1.541,2.384,2.7,3.892,3.035,4.316c0.118,0.15,0.243,0.296,0.372,0.436
	c6.355,6.889,10.461,21.243,10.461,36.568V497H366.082z M408.466,497H394.95v-8.881c0-13.047-2.431-25.188-6.751-34.733
	c12.512,7.093,20.267,20.332,20.267,34.733V497z"/>
<g>
</g>
<g>
</g>
<g>
</g>
<g>
</g>
<g>
</g>
<g>
</g>
<g>
</g>
<g>
</g>
<g>
</g>
<g>
</g>
<g>
</g>
<g>
</g>
<g>
</g>
<g>
</g>
<g>
</g>
</svg>
