<?xml version="1.0" encoding="iso-8859-1"?>
<!-- Generator: Adobe Illustrator 19.0.0, SVG Export Plug-In . SVG Version: 6.00 Build 0)  -->
<svg version="1.1" id="Capa_1" xmlns="http://www.w3.org/2000/svg" xmlns:xlink="http://www.w3.org/1999/xlink" x="0px" y="0px"
	 viewBox="0 0 512 512" style="enable-background:new 0 0 512 512;" xml:space="preserve">
<path style="fill:#F8D5AB;" d="M373.943,80.967c-4.299-10.2-10.983-19.281-19.465-25.385l-62.316-44.847
	c-19.891-14.313-52.436-14.313-72.324,0l-62.316,44.847c-8.482,6.104-15.166,15.185-19.465,25.385H373.943z"/>
<path style="fill:#FF3D6C;" d="M256,229.641c-40.947,0-80.109-15.335-110.271-43.181c-29.941-27.644-48.5-65.212-52.254-105.785
	c-0.162-1.749,0.426-3.484,1.621-4.781c1.195-1.298,2.887-2.037,4.658-2.037h312.49c1.773,0,3.465,0.739,4.66,2.037
	c1.193,1.297,1.783,3.032,1.623,4.781c-3.758,40.573-22.314,78.141-52.258,105.785C336.107,214.306,296.947,229.641,256,229.641z"/>
<path style="opacity:0.1;enable-background:new    ;" d="M185.092,186.461c-29.943-27.644-48.5-65.212-52.256-105.785
	c-0.162-1.749,0.428-3.484,1.621-4.781c1.195-1.298,2.887-2.037,4.66-2.037H99.754c-1.771,0-3.463,0.739-4.658,2.037
	c-1.195,1.297-1.783,3.032-1.621,4.781c3.754,40.573,22.313,78.141,52.254,105.785c30.162,27.846,69.324,43.181,110.271,43.181
	c6.617,0,13.187-0.406,19.682-1.196C241.992,224.352,210.379,209.806,185.092,186.461z"/>
<rect x="217.67" y="213.4" style="fill:#7B7DAA;" width="76.66" height="73.859"/>
<path style="fill:#299FBC;" d="M90.767,512c-3.482,0-6.307-2.797-6.307-6.247v-79.959c0-84.046,69.031-152.424,153.881-152.424
	h35.316c84.85,0,153.881,68.378,153.881,152.424v79.959c0,3.45-2.822,6.247-6.307,6.247H90.767z"/>
<path style="fill:#008DAF;" d="M143.82,512h224.357V305.597c-26.102-20.184-58.916-32.228-94.52-32.228h-35.316
	c-35.605,0-68.42,12.044-94.521,32.228V512z"/>
<path style="opacity:0.1;enable-background:new    ;" d="M112.775,505.753v-79.959c0-84.046,69.031-152.424,153.883-152.424h-28.316
	c-84.85,0-153.881,68.378-153.881,152.424v79.959c0,3.45,2.824,6.247,6.307,6.247h28.316
	C115.599,512,112.775,509.203,112.775,505.753z"/>
<ellipse style="fill:#FFFFFF;" cx="256" cy="379.59" rx="71.45" ry="70.775"/>
<path style="opacity:0.1;enable-background:new    ;" d="M206.842,379.592c0-35.331,26.141-64.609,60.307-69.912
	c-3.633-0.564-7.355-0.863-11.148-0.863c-39.461,0.001-71.451,31.686-71.451,70.775s31.99,70.774,71.451,70.775
	c3.793,0,7.516-0.299,11.148-0.863C232.982,444.201,206.842,414.924,206.842,379.592z"/>
<path style="fill:#19A9C1;" d="M256,458.093L256,458.093c-43.66-0.001-79.178-35.217-79.178-78.501
	c0-43.285,35.518-78.501,79.178-78.501c43.658,0,79.178,35.216,79.178,78.501C335.178,422.876,299.658,458.092,256,458.093z
	 M256,316.543c-35.139,0.001-63.727,28.284-63.727,63.049S220.861,442.64,256,442.641c35.137-0.001,63.725-28.284,63.725-63.049
	C319.724,344.827,291.137,316.543,256,316.543z"/>
<path style="fill:#008DAF;" d="M240.131,403.037c-1.99,0-3.979-0.764-5.49-2.289c-3.002-3.032-2.979-7.924,0.053-10.927
	l43.517-43.105c3.033-3.003,7.924-2.979,10.926,0.052c3.004,3.032,2.98,7.923-0.051,10.926L245.568,400.8
	C244.06,402.292,242.096,403.037,240.131,403.037z"/>
<ellipse style="fill:#FF3D6C;" cx="256" cy="379.59" rx="16.904" ry="16.745"/>
<path style="fill:#008DAF;" d="M429.615,240.733c0,2.833-2.318,5.151-5.152,5.151H87.535c-2.832,0-5.15-2.318-5.15-5.151v-22.182
	c0-2.833,2.318-5.151,5.15-5.151h336.928c2.834,0,5.152,2.318,5.152,5.151L429.615,240.733L429.615,240.733z"/>
<path style="opacity:0.1;enable-background:new    ;" d="M122.017,240.733v-22.182c0-2.833,2.318-5.151,5.15-5.151H87.535
	c-2.832,0-5.15,2.318-5.15,5.151v22.182c0,2.833,2.318,5.151,5.15,5.151h39.633C124.336,245.884,122.017,243.566,122.017,240.733z"
	/>
<path style="fill:#FFFFFF;" d="M295.965,489.007h-79.93c-4.268,0-7.727-3.459-7.727-7.727c0-4.267,3.459-7.726,7.727-7.726h79.93
	c4.268,0,7.727,3.46,7.727,7.726C303.691,485.548,300.232,489.007,295.965,489.007z"/>
<path style="fill:#F6B245;" d="M233.305,36.788c-2.039,0-4.029-0.825-5.471-2.256c-1.432-1.443-2.256-3.431-2.256-5.47
	c0-2.03,0.824-4.028,2.256-5.46c1.441-1.442,3.432-2.266,5.471-2.266c2.029,0,4.018,0.824,5.459,2.266
	c1.443,1.432,2.268,3.431,2.268,5.46c0,2.04-0.824,4.027-2.268,5.47C237.322,35.963,235.334,36.788,233.305,36.788z"/>
<g>
	<path style="fill:#FFFFFF;" d="M256,54.043c-2.029,0-4.029-0.825-5.461-2.267c-1.441-1.432-2.266-3.431-2.266-5.46
		c0-2.04,0.824-4.028,2.266-5.47c1.432-1.432,3.42-2.256,5.461-2.256c2.039,0,4.027,0.824,5.459,2.256
		c1.443,1.442,2.268,3.44,2.268,5.47c0,2.029-0.824,4.018-2.268,5.46C260.027,53.218,258.029,54.043,256,54.043z"/>
	<path style="fill:#FFFFFF;" d="M278.705,36.788c-2.041,0-4.029-0.825-5.471-2.267c-1.441-1.433-2.266-3.42-2.266-5.46
		c0-2.03,0.824-4.028,2.266-5.46c1.441-1.442,3.43-2.266,5.471-2.266c2.029,0,4.018,0.824,5.459,2.266
		c1.443,1.443,2.267,3.431,2.267,5.46s-0.824,4.027-2.267,5.46C282.723,35.963,280.734,36.788,278.705,36.788z"/>
</g>
<path style="fill:#F6B245;" d="M301.398,54.043c-2.029,0-4.016-0.825-5.459-2.267c-1.441-1.432-2.268-3.431-2.268-5.46
	c0-2.03,0.826-4.028,2.268-5.47c1.432-1.432,3.43-2.256,5.459-2.256c2.031,0,4.029,0.824,5.461,2.256
	c1.441,1.442,2.266,3.44,2.266,5.47c0,2.029-0.824,4.028-2.266,5.46C305.418,53.218,303.43,54.043,301.398,54.043z"/>
<path style="fill:#FFFFFF;" d="M210.599,54.043c-2.029,0-4.018-0.825-5.461-2.267c-1.441-1.442-2.266-3.431-2.266-5.46
	c0-2.04,0.824-4.028,2.266-5.47c1.443-1.432,3.432-2.256,5.461-2.256c2.039,0,4.027,0.824,5.459,2.256
	c1.443,1.442,2.268,3.431,2.268,5.47c0,2.029-0.824,4.018-2.268,5.46C214.627,53.218,212.639,54.043,210.599,54.043z"/>
<g>
</g>
<g>
</g>
<g>
</g>
<g>
</g>
<g>
</g>
<g>
</g>
<g>
</g>
<g>
</g>
<g>
</g>
<g>
</g>
<g>
</g>
<g>
</g>
<g>
</g>
<g>
</g>
<g>
</g>
</svg>
