<?xml version="1.0" encoding="iso-8859-1"?>
<!-- Generator: Adobe Illustrator 19.0.0, SVG Export Plug-In . SVG Version: 6.00 Build 0)  -->
<svg version="1.1" id="Capa_1" xmlns="http://www.w3.org/2000/svg" xmlns:xlink="http://www.w3.org/1999/xlink" x="0px" y="0px"
	 viewBox="0 0 512 512" style="enable-background:new 0 0 512 512;" xml:space="preserve">
<path style="fill:#E7F9FF;" d="M23.812,290.778c9.732,87.23,68.023,162.278,150.956,193.036c0.714,0.265,1.469,0.4,2.232,0.4h158
	c0.763,0,1.518-0.135,2.232-0.4c82.932-30.758,141.224-105.807,150.956-193.036H23.812z"/>
<circle style="fill:#FFCB00;" cx="376.8" cy="301.08" r="21.08"/>
<path style="fill:#BEF0FF;" d="M177.043,467.187v38.837c0,2.833,2.318,5.151,5.151,5.151h147.611c2.833,0,5.151-2.318,5.151-5.151
	v-38.837H177.043z"/>
<path style="opacity:0.1;enable-background:new    ;" d="M199.34,506.025v-38.837h-22.296v38.837c0,2.833,2.318,5.151,5.151,5.151
	h22.297C201.658,511.176,199.34,508.857,199.34,506.025z"/>
<path style="fill:#FF3D6C;" d="M379.171,144.19L482.657,40.704c9.255-9.255,9.445-24.21,0.421-33.234
	c-9.024-9.023-23.979-8.834-33.233,0.419L346.358,111.377L379.171,144.19z"/>
<path style="fill:#FF1B52;" d="M483.078,7.47c-9.024-9.023-23.979-8.834-33.233,0.419l-27.344,27.344l32.813,32.814l27.343-27.344
	C491.913,31.449,492.102,16.494,483.078,7.47z"/>
<path style="fill:#9798BC;" d="M331.161,135.863l-158.934,51.771c-22.855,4.537-43.744,15.748-60.439,32.442
	c-21.834,21.833-34.139,50.6-34.648,81.001c-0.511,30.496,10.897,58.98,32.125,80.208c20.726,20.726,48.528,32.14,78.286,32.14
	c0.002,0-0.001,0,0.001,0c31.117,0,60.569-12.311,82.922-34.664c16.695-16.696,27.906-37.585,32.441-60.439l51.772-158.935
	L331.161,135.863z M93.765,321.019c-1.186-6.4-1.74-12.988-1.627-19.69c0.444-26.489,11.189-51.579,30.257-70.646
	c14.686-14.685,33.066-24.511,53.155-28.415c0.302-0.059,0.6-0.136,0.892-0.231l79.876-26.018l-65.165,32.024
	c-19.566,7.439-38.565,20.031-54.967,36.433c-21.462,21.462-36.247,47.18-41.63,72.416C94.259,318.277,94,319.652,93.765,321.019z
	 M107.54,341.492c-0.482-6.636,0.056-13.838,1.685-21.472c4.787-22.438,18.128-45.5,37.567-64.939
	c15.001-15.001,32.289-26.458,49.996-33.134c0.225-0.084,0.446-0.18,0.662-0.287l71.427-35.102l-59.516,41.43
	c-16.371,10.108-33.524,23.951-49.617,40.044c-21.017,21.017-38.038,43.665-47.925,63.771
	C110.128,335.242,108.717,338.464,107.54,341.492z M170.351,278.64c15.339-15.339,31.612-28.475,47.059-37.99
	c0.119-0.073,0.236-0.15,0.351-0.23l71.613-49.851L117.691,362.251C118.549,346.351,135.378,313.612,170.351,278.64z
	 M299.983,201.171l-49.854,71.616c-0.08,0.115-0.157,0.232-0.23,0.352c-9.516,15.449-22.653,31.722-37.99,47.059
	c-35.172,35.172-67.511,51.707-83.535,52.583L299.983,201.171z M149.044,382.997c21.653-8.344,48.307-27.029,73.47-52.193
	c16.092-16.091,29.935-33.244,40.044-49.618l41.429-59.513l-35.101,71.423c-0.106,0.216-0.202,0.437-0.287,0.662
	c-6.677,17.708-18.134,34.996-33.134,49.995c-24.686,24.686-55.21,39.423-81.655,39.422
	C152.189,383.176,150.602,383.112,149.044,382.997z M288.51,314.108c-0.095,0.292-0.172,0.59-0.231,0.892
	c-3.903,20.088-13.729,38.469-28.414,53.155c-19.521,19.52-45.203,30.27-72.316,30.27c-6.113,0-12.128-0.562-17.989-1.648
	c26.09-4.488,53.733-19.635,76.512-42.416c16.4-16.4,28.993-35.399,36.433-54.967l32.024-65.163L288.51,314.108z"/>
<path style="fill:#FF3D6C;" d="M455.944,42.104c-1.919,0-3.839-0.732-5.303-2.197c-2.929-2.929-2.929-7.678,0-10.606l7.992-7.992
	c2.929-2.929,7.678-2.929,10.606,0c2.929,2.929,2.929,7.678,0,10.606l-7.992,7.992C459.783,41.371,457.864,42.104,455.944,42.104z"
	/>
<path style="fill:#FF1B52;" d="M353.233,96.93c2.003-2.003,5.281-2.003,7.285,0l33.1,33.1c2.003,2.003,2.003,5.281,0,7.285
	L362.2,168.732c-2.003,2.003-5.281,2.003-7.285,0l-33.1-33.1c-2.003-2.003-2.003-5.281,0-7.285L353.233,96.93z"/>
<path style="fill:#FFCB00;" d="M383.548,356.402c-5.294-10.263-15.991-17.285-28.335-17.285c-6.226,0-12.03,1.791-16.938,4.877
	c-5.307-10.225-15.983-17.215-28.299-17.215c-16.846,0-30.628,13.07-31.784,29.622H41.095
	c24.77,57.968,72.521,104.732,133.673,127.412c0.714,0.265,1.469,0.4,2.232,0.4h158c0.763,0,1.518-0.135,2.232-0.4
	c61.151-22.68,108.903-69.444,133.673-127.412L383.548,356.402L383.548,356.402z"/>
<path style="opacity:0.1;enable-background:new    ;" d="M57.411,290.778H23.812c9.732,87.23,68.023,162.278,150.956,193.036
	c0.714,0.265,1.469,0.4,2.232,0.4h33.599c-0.763,0-1.517-0.135-2.232-0.4C125.434,453.056,67.143,378.008,57.411,290.778z"/>
<path style="fill:#A8E5C6;" d="M335,491.715H176.999c-1.659,0-3.288-0.292-4.842-0.869c-41.929-15.551-78.663-42.439-106.23-77.758
	C38.435,377.866,21.295,335.86,16.358,291.61c-0.459-4.117,2.505-7.826,6.622-8.285c4.11-0.465,7.826,2.505,8.285,6.622
	c9.516,85.288,65.422,156.835,145.928,186.768h157.613c80.502-29.938,136.413-101.485,145.928-186.768
	c0.459-4.117,4.165-7.086,8.285-6.622c4.117,0.459,7.082,4.168,6.622,8.285c-4.936,44.25-22.077,86.256-49.569,121.478
	c-27.567,35.319-64.302,62.207-106.232,77.758C338.29,491.422,336.661,491.715,335,491.715z"/>
<g>
	<path style="fill:#F6B142;" d="M325.397,382.602c-4.142,0-7.5-3.358-7.5-7.5c0-2.667-2.17-4.837-4.837-4.837
		s-4.838,2.17-4.838,4.837c0,4.142-3.358,7.5-7.5,7.5s-7.5-3.358-7.5-7.5c0-10.939,8.899-19.837,19.838-19.837
		c10.938,0,19.837,8.899,19.837,19.837C332.897,379.244,329.54,382.602,325.397,382.602z"/>
	<path style="fill:#F6B142;" d="M310.266,456.99c-0.513,0-1.034-0.053-1.556-0.163c-4.053-0.855-6.645-4.834-5.79-8.887
		c1.999-9.467,10.479-16.338,20.164-16.338c9.048,0,17.17,6.052,19.752,14.718c1.183,3.97-1.077,8.147-5.047,9.329
		c-3.969,1.183-8.146-1.077-9.329-5.047c-0.702-2.355-2.912-4.001-5.376-4.001c-2.637,0-4.945,1.866-5.487,4.436
		C316.852,454.568,313.736,456.99,310.266,456.99z"/>
	<path style="fill:#F6B142;" d="M358.074,409.697c-0.514,0-1.034-0.053-1.557-0.163c-4.053-0.856-6.644-4.835-5.788-8.888
		c1.999-9.466,10.479-16.337,20.163-16.337c9.685,0,18.165,6.871,20.164,16.337c0.855,4.053-1.736,8.032-5.789,8.888
		c-4.054,0.858-8.032-1.736-8.888-5.789c-0.542-2.571-2.851-4.436-5.487-4.436c-2.637,0-4.944,1.866-5.487,4.436
		C364.659,407.275,361.543,409.697,358.074,409.697z"/>
	<path style="fill:#F6B142;" d="M267.856,414.838c-0.709,0-1.43-0.102-2.145-0.314c-3.97-1.183-6.229-5.36-5.045-9.33
		c2.582-8.665,10.705-14.717,19.752-14.717c7.894,0,14.974,4.396,18.477,11.474c1.837,3.712,0.317,8.211-3.395,10.048
		s-8.211,0.317-10.048-3.395c-0.955-1.929-2.883-3.127-5.033-3.127c-2.464,0-4.675,1.645-5.377,4.001
		C274.071,412.733,271.087,414.838,267.856,414.838z"/>
</g>
<circle style="fill:#FFCB00;" cx="124.75" cy="170.51" r="16.45"/>
<g>
	<circle style="fill:#F6B142;" cx="177.18" cy="136.58" r="13.365"/>
	<circle style="fill:#F6B142;" cx="410.45" cy="232.62" r="13.365"/>
</g>
<circle style="fill:#FFCB00;" cx="126.8" cy="92.37" r="22.618"/>
<path style="fill:#BEF0FF;" d="M512,283.579c0,5.666-4.636,10.302-10.302,10.302H10.302C4.636,293.88,0,289.245,0,283.579v-9.211
	c0-5.666,4.636-10.302,10.302-10.302h491.396c5.666,0,10.302,4.636,10.302,10.302V283.579z"/>
<g style="opacity:0.1;">
	<path style="opacity:0.1;enable-background:new    ;" d="M36.571,283.579v-9.211c0-5.666,4.636-10.302,10.302-10.302H10.302
		C4.636,264.065,0,268.701,0,274.367v9.211c0,5.666,4.636,10.302,10.302,10.302h36.571C41.207,293.88,36.571,289.245,36.571,283.579
		z"/>
</g>
<g>
</g>
<g>
</g>
<g>
</g>
<g>
</g>
<g>
</g>
<g>
</g>
<g>
</g>
<g>
</g>
<g>
</g>
<g>
</g>
<g>
</g>
<g>
</g>
<g>
</g>
<g>
</g>
<g>
</g>
</svg>
