<?xml version="1.0" encoding="iso-8859-1"?>
<!-- Generator: Adobe Illustrator 19.0.0, SVG Export Plug-In . SVG Version: 6.00 Build 0)  -->
<svg version="1.1" id="Capa_1" xmlns="http://www.w3.org/2000/svg" xmlns:xlink="http://www.w3.org/1999/xlink" x="0px" y="0px"
	 viewBox="0 0 511.986 511.986" style="enable-background:new 0 0 511.986 511.986;" xml:space="preserve">
<path style="fill:#FFEB99;" d="M480.424,501.871c13.519-13.791,12.366-33.411-0.458-45.982l-190.88-187.117l-45.525,46.441
	l190.881,187.116C447.267,514.901,466.905,515.662,480.424,501.871z"/>
<path style="fill:#FFE477;" d="M451.201,472.538L266.667,291.643l-23.105,23.571l190.881,187.116
	c12.824,12.571,32.463,13.333,45.982-0.458c6.952-7.091,10.014-15.723,9.615-24.145C477.36,485.288,461.906,483.032,451.201,472.538
	z"/>
<path style="fill:#FFDA44;" d="M361.329,430.658c34.844-3.148,60.441-8.719,78.452-14.162L289.085,268.772l-45.525,46.441
	L361.329,430.658z"/>
<path style="fill:#FFCD00;" d="M402.878,425.168L266.667,291.643l-23.105,23.571L361.33,430.659
	C377.005,429.242,390.793,427.332,402.878,425.168z"/>
<path style="fill:#E0E0E2;" d="M92.352,185.344l63.878-65.164c0,0,78.023,68.139,132.855,148.592l-45.525,46.441
	C162.032,261.993,92.352,185.344,92.352,185.344z"/>
<path style="fill:#D8D7DA;" d="M126.476,150.533l-34.125,34.811c0,0,69.679,76.65,151.209,129.869l22.744-23.202l0,0
	L126.476,150.533z"/>
<path style="fill:#FFA5B5;" d="M11.329,99.453l57.415-58.57c11.024-11.245,29.21-10.912,39.842,0.705
	c15.999,17.479,37.112,45.184,47.645,78.593l-63.878,65.164c-33.612-9.865-61.732-30.422-79.526-46.07
	C1.001,128.874,0.305,110.7,11.329,99.453z"/>
<g>
	<path style="fill:#FF728B;" d="M126.476,150.533C88.323,127.322,59.267,81.356,48.15,61.892L11.329,99.453
		c-11.024,11.245-10.328,29.421,1.498,39.821c17.794,15.647,45.914,36.205,79.526,46.07L126.476,150.533z"/>
	<path style="fill:#FF728B;" d="M143.465,133.202L89.046,79.854c-3.047-2.988-7.94-2.939-10.926,0.109
		c-2.986,3.047-2.938,7.939,0.108,10.926l54.42,53.347L143.465,133.202z"/>
</g>
<path style="fill:#FF3F62;" d="M115.935,161.287l-54.42-53.347c-3.047-2.988-7.94-2.939-10.926,0.109
	c-2.986,3.047-2.938,7.939,0.108,10.926l54.42,53.348L115.935,161.287z"/>
<path style="fill:#3E3D42;" d="M488.733,305.361H112.296l19.66,48.138c6.318,15.47,19.147,27.354,35.066,32.434
	c24.014,7.664,66.16,16.405,133.492,16.405c72.042,0,115.254-10.007,138.27-17.994c13.092-4.543,23.603-14.467,28.842-27.296
	L488.733,305.361z"/>
<path style="fill:#2D2D30;" d="M488.733,305.361h-93.279v89.757c18.918-3.288,33.118-7.229,43.33-10.773
	c13.092-4.543,23.603-14.467,28.842-27.296L488.733,305.361z"/>
<ellipse style="fill:#57565C;" cx="300.522" cy="294.165" rx="190.913" ry="66.426"/>
<path style="fill:#3E3D42;" d="M395.455,351.806c57.352-11.459,95.98-32.981,95.98-57.642c0-36.685-85.476-66.424-190.916-66.424
	c-25.198,0-49.251,1.702-71.275,4.788C267.641,316.63,354.898,344.424,395.455,351.806z"/>
<path style="fill:#FFA5B5;" d="M300.517,321c-39.273,0-77.503-4.554-107.648-12.826c-6.508-1.785-12.193-3.616-17.134-5.422
	c-8.021-2.932-8.021-14.244,0-17.176c4.941-1.806,10.626-3.637,17.134-5.422c30.145-8.271,68.375-12.826,107.648-12.826
	s77.503,4.554,107.648,12.826c6.508,1.785,12.193,3.616,17.134,5.422c8.022,2.932,8.022,14.244,0,17.176
	c-4.941,1.806-10.626,3.637-17.134,5.422C378.02,316.445,339.79,321,300.517,321z"/>
<path style="fill:#FF728B;" d="M425.299,285.575c-4.941-1.806-10.626-3.637-17.134-5.422
	c-30.145-8.271-68.375-12.826-107.648-12.826c-16.595,0-32.995,0.822-48.686,2.386c17.363,22.234,38.414,38.846,59.604,51.156
	c35.39-0.762,69.388-5.193,96.73-12.695c6.508-1.785,12.193-3.616,17.134-5.422C433.321,299.82,433.321,288.507,425.299,285.575z"/>
<path style="fill:#2D2D30;" d="M260.695,5.587L231.34,28.794c-28.778,22.751,0.901,108.247,66.292,190.963
	s141.73,131.325,170.508,108.574l29.355-23.207L260.695,5.587z"/>
<path style="fill:#1D1D1F;" d="M450.466,245.638l-56.646,66.148c32.059,21.051,59.497,28.263,74.318,16.546l29.355-23.207
	L450.466,245.638z"/>
<ellipse transform="matrix(0.7845 -0.6202 0.6202 0.7845 -14.6491 268.5956)" style="fill:#3E3D42;" cx="379.1" cy="155.373" rx="66.429" ry="190.922"/>
<path style="fill:#2D2D30;" d="M416.819,284.264c34.769,24.338,64.884,33.347,80.677,20.861
	c26.037-20.583,4.221-92.528-48.599-167.304C454.009,227.495,416.83,284.246,416.819,284.264z"/>
<g>
</g>
<g>
</g>
<g>
</g>
<g>
</g>
<g>
</g>
<g>
</g>
<g>
</g>
<g>
</g>
<g>
</g>
<g>
</g>
<g>
</g>
<g>
</g>
<g>
</g>
<g>
</g>
<g>
</g>
</svg>
