<svg height="512" viewBox="0 0 512 512" width="512" xmlns="http://www.w3.org/2000/svg"><g id="Flat"><path d="m56 136v320a24 24 0 0 0 24 24h352a24 24 0 0 0 24-24v-320z" fill="#35505d"/><path d="m344 392 40.185-5.023a21.186 21.186 0 0 1 23.815 21.023 21.186 21.186 0 0 1 -23.815 21.023l-40.185-5.023h-176l-40.185 5.023a21.186 21.186 0 0 1 -23.815-21.023 21.186 21.186 0 0 1 23.815-21.023l40.185 5.023z" fill="#ecae49"/><circle cx="256" cy="312" fill="#c89774" r="40"/><circle cx="376" cy="312" fill="#bc8e7d" r="40"/><circle cx="136" cy="312" fill="#cca085" r="40"/><circle cx="256" cy="192" fill="#ae6650" r="40"/><circle cx="376" cy="192" fill="#954e39" r="40"/><circle cx="136" cy="192" fill="#bd7d63" r="40"/><path d="m483.673 148.529-23.5-105.735a24 24 0 0 0 -23.425-18.794h-361.496a24 24 0 0 0 -23.428 18.794l-23.5 105.735a16 16 0 0 0 15.622 19.471h164.054v8a16 16 0 0 0 16 16h64a16 16 0 0 0 16-16v-8h164.054a16 16 0 0 0 15.619-19.471z" fill="#58646f"/><path d="m248 72h16v16h-16z" fill="#35505d"/><path d="m232 104h48v16h-48z" fill="#35505d"/><path d="m168 392h176v32h-176z" fill="#58646f"/></g></svg>