<svg viewBox="-37 0 511 511.99889" xmlns="http://www.w3.org/2000/svg"><path d="m270.90625 196.246094h-102.816406v-176.941406l102.816406 57.871093zm0 0" fill="#ff2c5c"/><path d="m240.066406 59.816406v136.429688h30.839844v-119.070313zm0 0" fill="#e62753"/><path d="m287.359375 256h-135.71875v-76.355469c0-2.207031 1.792969-4 4-4h127.71875c2.207031 0 4 1.792969 4 4zm0 0" fill="#ebe4e2"/><path d="m287.359375 286.902344h-135.71875v-107.257813c0-2.210937 1.792969-4 4-4h127.71875c2.207031 0 4 1.789063 4 4zm0 0" fill="#ebe4e2"/><path d="m287.359375 286.902344h-30.847656v-111.257813h26.847656c2.207031 0 4 1.789063 4 4zm0 0" fill="#d1c4c4"/><path d="m295.695312 512h-152.394531c-2.207031 0-4-1.792969-4-4v-248c0-2.210938 1.792969-4 4-4h152.394531c2.210938 0 4 1.789062 4 4v248c0 2.207031-1.789062 4-4 4zm0 0" fill="#685c79"/><path d="m295.695312 512h-26.84375v-256h26.84375c2.210938 0 4 1.789062 4 4v248c0 2.207031-1.789062 4-4 4zm0 0" fill="#594f69"/><path d="m299.695312 286.902344h-160.394531v-26.902344c0-2.210938 1.792969-4 4-4h152.394531c2.210938 0 4 1.789062 4 4zm0 0" fill="#ffd659"/><path d="m299.695312 286.902344h-30.84375v-30.902344h26.84375c2.210938 0 4 1.789062 4 4zm0 0" fill="#ffbd54"/><path d="m266.25 88.300781c-11.789062 13.195313-42.277344 5.578125-68.097656-17.015625-25.824219-22.597656-37.195313-51.613281-25.40625-64.808594 11.789062-13.199218 42.28125-5.582031 68.101562 17.015626 25.820313 22.59375 37.195313 51.609374 25.402344 64.808593zm0 0" fill="#d6244d"/><path d="m59.769531 145.914062 10.300781 20.972657c1.109376 2.257812 3.253907 3.824219 5.738282 4.1875l23.03125 3.363281c6.25.910156 8.746094 8.628906 4.222656 13.054688l-16.664062 16.324218c-1.796876 1.757813-2.617188 4.292969-2.191407 6.777344l3.933594 23.046875c1.066406 6.253906-5.464844 11.023437-11.054687 8.070313l-20.605469-10.882813c-2.21875-1.171875-4.871094-1.171875-7.089844 0l-20.601563 10.882813c-5.589843 2.953124-12.125-1.816407-11.058593-8.070313l3.9375-23.046875c.421875-2.484375-.398438-5.019531-2.191407-6.777344l-16.667968-16.320312c-4.523438-4.429688-2.027344-12.144532 4.222656-13.058594l23.035156-3.363281c2.480469-.363281 4.625-1.929688 5.734375-4.1875l10.300781-20.96875c2.796876-5.691407 10.875-5.691407 13.667969-.003907zm0 0" fill="#ffd659"/><path d="m103.0625 187.492188c4.523438-4.425782 2.027344-12.144532-4.222656-13.054688l-23.03125-3.363281c-2.484375-.363281-4.628906-1.929688-5.738282-4.1875l-10.300781-20.972657c-2.792969-5.6875-10.871093-5.6875-13.664062 0l-.542969 1.105469c5.488281 39.957031 27.082031 48.886719 25.746094 91.640625l5.773437 3.050782c5.589844 2.953124 12.125-1.816407 11.058594-8.070313l-3.933594-23.046875c-.425781-2.484375.394531-5.019531 2.191407-6.777344zm0 0" fill="#ffbd54"/><path d="m402.730469 306.695312 8.082031 16.261719c.871094 1.75 2.550781 2.96875 4.5 3.246094l18.0625 2.609375c4.902344.707031 6.859375 6.691406 3.3125 10.128906l-13.070312 12.65625c-1.410157 1.363282-2.050782 3.328125-1.71875 5.253906l3.085937 17.875c.835937 4.851563-4.289063 8.546876-8.671875 6.257813l-16.160156-8.4375c-1.738282-.910156-3.820313-.910156-5.5625 0l-16.15625 8.4375c-4.382813 2.292969-9.507813-1.40625-8.671875-6.257813l3.085937-17.875c.332032-1.925781-.308594-3.890624-1.71875-5.253906l-13.070312-12.65625c-3.546875-3.4375-1.589844-9.421875 3.3125-10.128906l18.0625-2.609375c1.949218-.277344 3.628906-1.492187 4.5-3.246094l8.078125-16.261719c2.195312-4.414062 8.527343-4.414062 10.71875 0zm0 0" fill="#ffd659"/><path d="m423.613281 351.597656c-1.410156 1.359375-2.046875 3.328125-1.71875 5.253906l3.085938 17.875c.84375 4.851563-4.289063 8.550782-8.667969 6.261719l-2.335938-1.226562c-1.140624-31.636719-15.9375-43.453125-23.113281-70.75l1.152344-2.320313c2.191406-4.410156 8.523437-4.410156 10.714844 0l8.082031 16.265625c.875 1.753907 2.550781 2.96875 4.503906 3.246094l18.0625 2.605469c4.894532.710937 6.859375 6.699218 3.3125 10.128906zm0 0" fill="#ffbd54"/></svg>