<svg height="512" viewBox="0 0 512 512" width="512" xmlns="http://www.w3.org/2000/svg"><g id="Flat"><path d="m112 256v32h112v-32l-7.47-216.55a16 16 0 0 0 -15.99-15.45h-65.08a16 16 0 0 0 -15.99 15.45z" fill="#58646f"/><path d="m184 255.72v32.28h40v-32l-7.47-216.55a16 16 0 0 0 -15.99-15.45h-4.83a32.01 32.01 0 0 0 -4.23 14.9z" fill="#35505d"/><path d="m72 280v52.67a390.993 390.993 0 0 0 15.37 108.56q5.385 18.63 12.61 36.71a15.989 15.989 0 0 0 14.85 10.06h106.34a15.979 15.979 0 0 0 14.85-10.06q7.23-18.06 12.61-36.71a390.993 390.993 0 0 0 15.37-108.56v-52.67l-40-24h-112z" fill="#d83d67"/><path d="m144 270.94v61.73a406.708 406.708 0 0 0 16 113c3.74 12.95 8.16 25.81 13.13 38.22a31.827 31.827 0 0 0 1.99 4.11h46.05a15.979 15.979 0 0 0 14.85-10.06q7.23-18.06 12.61-36.71a390.993 390.993 0 0 0 15.37-108.56v-52.67l-40-24h-55.1z" fill="#c5385e"/><path d="m87.37 441.23q5.385 18.63 12.61 36.71a15.989 15.989 0 0 0 14.85 10.06h106.34a15.979 15.979 0 0 0 14.85-10.06q7.23-18.06 12.61-36.71l-11.46 6.87a55.465 55.465 0 0 1 -28.53 7.9h-81.28a55.465 55.465 0 0 1 -28.53-7.9z" fill="#ccdce4"/><path d="m163.14 456c3 9.44 6.34 18.79 9.99 27.89a31.827 31.827 0 0 0 1.99 4.11h46.05a15.979 15.979 0 0 0 14.85-10.06q7.23-18.06 12.61-36.71l-11.46 6.87a55.465 55.465 0 0 1 -28.53 7.9z" fill="#abbac2"/><path d="m400 256v32h-112v-32l7.47-216.55a16 16 0 0 1 15.99-15.45h65.08a16 16 0 0 1 15.99 15.45z" fill="#58646f"/><path d="m328 255.72v32.28h-40v-32l7.47-216.55a16 16 0 0 1 15.99-15.45h4.83a32.01 32.01 0 0 1 4.23 14.9z" fill="#35505d"/><path d="m440 280v52.67a390.993 390.993 0 0 1 -15.37 108.56q-5.385 18.63-12.61 36.71a15.989 15.989 0 0 1 -14.85 10.06h-106.34a15.979 15.979 0 0 1 -14.85-10.06q-7.23-18.06-12.61-36.71a390.993 390.993 0 0 1 -15.37-108.56v-52.67l40-24h112z" fill="#f37952"/><path d="m368 270.94v61.73a406.708 406.708 0 0 1 -16 113c-3.74 12.95-8.16 25.81-13.13 38.22a31.827 31.827 0 0 1 -1.99 4.11h-46.05a15.979 15.979 0 0 1 -14.85-10.06q-7.23-18.06-12.61-36.71a390.993 390.993 0 0 1 -15.37-108.56v-52.67l40-24h55.1z" fill="#ed6c42"/><path d="m424.63 441.23q-5.385 18.63-12.61 36.71a15.989 15.989 0 0 1 -14.85 10.06h-106.34a15.979 15.979 0 0 1 -14.85-10.06q-7.23-18.06-12.61-36.71l11.46 6.87a55.465 55.465 0 0 0 28.53 7.9h81.28a55.465 55.465 0 0 0 28.53-7.9z" fill="#ccdce4"/><path d="m348.86 456c-3 9.44-6.34 18.79-9.99 27.89a31.827 31.827 0 0 1 -1.99 4.11h-46.05a15.979 15.979 0 0 1 -14.85-10.06q-7.23-18.06-12.61-36.71l11.46 6.87a55.465 55.465 0 0 0 28.53 7.9z" fill="#abbac2"/><path d="m200 288h112v-32l-7.467-216.551a16 16 0 0 0 -15.991-15.449h-65.084a16 16 0 0 0 -15.991 15.449l-7.467 216.551z" fill="#58646f"/><path d="m352 280v52.67a390.993 390.993 0 0 1 -15.37 108.56q-5.385 18.63-12.61 36.71a15.989 15.989 0 0 1 -14.85 10.06h-106.34a15.979 15.979 0 0 1 -14.85-10.06q-7.23-18.06-12.61-36.71a390.993 390.993 0 0 1 -15.37-108.56v-52.67l40-24h112z" fill="#ef5349"/><path d="m248 296h16v16h-16z" fill="#e14134"/><path d="m232 328h48v16h-48z" fill="#e14134"/><path d="m336.63 441.23q-5.385 18.63-12.61 36.71a15.989 15.989 0 0 1 -14.85 10.06h-106.34a15.979 15.979 0 0 1 -14.85-10.06q-7.23-18.06-12.61-36.71l11.46 6.87a55.465 55.465 0 0 0 28.53 7.9h81.28a55.465 55.465 0 0 0 28.53-7.9z" fill="#ccdce4"/></g></svg>