<svg height="512" viewBox="0 0 512 512" width="512" xmlns="http://www.w3.org/2000/svg"><g id="Flat"><path d="m208 144-40-64 32-40h112l32 40-40 64z" fill="#ccdce4"/><path d="m256 80h-88l32-40z" fill="#7a8a9a"/><path d="m200 40 56 40 56-40z" fill="#abbac2"/><path d="m256 144v-64h88l-40 64z" fill="#abbac2"/><path d="m408 256-11.97 173.58-2.49 36.07a24 24 0 0 1 -23.94 22.35h-227.2a24 24 0 0 1 -23.94-22.35l-2.49-36.07-11.97-173.58 64-64h176z" fill="#bd1f5f"/><path d="m336 456v-200l-32-64h-96l-32 64v200z" fill="#df156a"/><rect fill="#fabd14" height="48" rx="16" width="208" x="152" y="144"/><path d="m248 272h16v16h-16z" fill="#bd1f5f"/><path d="m232 304h48v16h-48z" fill="#bd1f5f"/><path d="m396.03 429.58-2.49 36.07a24 24 0 0 1 -23.94 22.35h-227.2a24 24 0 0 1 -23.94-22.35l-2.49-36.07 30.97 18.58a54.965 54.965 0 0 0 28.29 7.84h161.54a54.965 54.965 0 0 0 28.29-7.84z" fill="#ccdce4"/></g></svg>